<svg width="512" height="512" viewBox="0 0 512 512" xmlns="http://www.w3.org/2000/svg">
  <!-- Background -->
  <rect width="512" height="512" fill="#222222" rx="80"/>

  <!-- Calendar outline -->
  <rect x="100" y="140" width="312" height="280" fill="none" stroke="#ffffff" stroke-width="16" rx="12"/>

  <!-- Calendar header bar -->
  <rect x="100" y="140" width="312" height="60" fill="#4a9eff" rx="12"/>
  <rect x="100" y="188" width="312" height="12" fill="#4a9eff"/>

  <!-- Binding rings -->
  <circle cx="160" cy="130" r="12" fill="none" stroke="#ffffff" stroke-width="8"/>
  <circle cx="256" cy="130" r="12" fill="none" stroke="#ffffff" stroke-width="8"/>
  <circle cx="352" cy="130" r="12" fill="none" stroke="#ffffff" stroke-width="8"/>

  <!-- Calendar grid dots (representing dates) -->
  <circle cx="140" cy="240" r="8" fill="#b0b0c0"/>
  <circle cx="180" cy="240" r="8" fill="#b0b0c0"/>
  <circle cx="220" cy="240" r="8" fill="#b0b0c0"/>
  <circle cx="260" cy="240" r="8" fill="#b0b0c0"/>
  <circle cx="300" cy="240" r="8" fill="#b0b0c0"/>
  <circle cx="340" cy="240" r="8" fill="#b0b0c0"/>
  <circle cx="372" cy="240" r="8" fill="#b0b0c0"/>

  <circle cx="140" cy="280" r="8" fill="#b0b0c0"/>
  <circle cx="180" cy="280" r="8" fill="#b0b0c0"/>
  <circle cx="220" cy="280" r="8" fill="#b0b0c0"/>
  <circle cx="260" cy="280" r="8" fill="#4a9eff"/>
  <circle cx="300" cy="280" r="8" fill="#b0b0c0"/>
  <circle cx="340" cy="280" r="8" fill="#b0b0c0"/>
  <circle cx="372" cy="280" r="8" fill="#b0b0c0"/>

  <circle cx="140" cy="320" r="8" fill="#b0b0c0"/>
  <circle cx="180" cy="320" r="8" fill="#b0b0c0"/>
  <circle cx="220" cy="320" r="8" fill="#b0b0c0"/>
  <circle cx="260" cy="320" r="8" fill="#b0b0c0"/>
  <circle cx="300" cy="320" r="8" fill="#b0b0c0"/>
  <circle cx="340" cy="320" r="8" fill="#b0b0c0"/>
  <circle cx="372" cy="320" r="8" fill="#b0b0c0"/>

  <circle cx="140" cy="360" r="8" fill="#b0b0c0"/>
  <circle cx="180" cy="360" r="8" fill="#b0b0c0"/>
  <circle cx="220" cy="360" r="8" fill="#b0b0c0"/>
  <circle cx="260" cy="360" r="8" fill="#b0b0c0"/>
  <circle cx="300" cy="360" r="8" fill="#b0b0c0"/>
</svg>
